<mxfile host="app.diagrams.net" modified="2024-03-03T14:08:21.556Z" agent="Mozilla/5.0 (Macintosh; Intel Mac OS X 10_15_7) AppleWebKit/537.36 (KHTML, like Gecko) Chrome/121.0.0.0 Safari/537.36" version="24.0.1" etag="s_5gbq06_8Hlnqzy-_rX" type="github">
  <diagram name="Page-1" id="xMaXfQ4-FiEouCMOn-JA">
    <mxGraphModel>
      <root>
        <mxCell id="0" />
        <mxCell id="1" parent="0" />
      </root>
    </mxGraphModel>
  </diagram>
</mxfile>
